<svg id="Calque_1" data-name="Calque 1" xmlns="http://www.w3.org/2000/svg" viewBox="0 0 936.83 821.98"><title>home-logo</title><path d="M263.81,15.36c26.48,6.08,53,12,79.52,17.9a103.38,103.38,0,0,1,11.88,2.88C360.38,38,361.9,41,361,46.48c-3.21,19.2-6.8,38.35-9.56,57.61-2.16,15.08-4,30.26-4.71,45.46-1.11,23.21-1.53,46.47-1.52,69.7,0,22.7,3.37,45.18,8.1,67.3a197.75,197.75,0,0,0,12.83,39.73c7.67,17,17.68,33,33.5,44,5.58,3.88,11.89,6.81,18.08,9.73,24.75,11.7,50.61,9.07,76.26,4.71,10.67-1.81,20.92-6.3,31.26-9.87,8-2.74,15.85-5.7,23.58-9,6.86-2.94,13.49-6.45,20.17-9.8,4.74-2.38,9.36-5,14.09-7.38,6-3,12.06-5.9,18-8.95,4.86-2.48,9.7-5,14.45-7.72,5.29-3,10.33-6.48,15.72-9.29,10.25-5.34,20.7-10.27,31-15.51,6.27-3.19,12.38-6.69,18.63-9.92q6.87-3.55,13.92-6.73c6.84-3.08,13.75-6,20.63-9,7.16-3.1,14.28-6.34,21.51-9.26,6.82-2.76,13.67-5.52,20.68-7.72,42.13-13.22,84.89-18.87,128.73-9.92,13.69,2.79,27.39,5.57,40.94,9a147,147,0,0,1,46.35,20.16,176.54,176.54,0,0,1,44.07,41.36c8.65,11.63,17.07,23.73,23.46,36.67,8.31,16.83,14.63,34.65,16.25,53.73.18,2.12.14,52.79-.06,56.72q-.12,2.37-.38,4.71c-1.3,11.82-5,23.07-8.79,34.14-4.18,12.21-10.4,23.74-16,35.44a127.25,127.25,0,0,1-9.53,17.2c-7.07,10.29-14.4,20.44-22.17,30.21a316.07,316.07,0,0,1-21.19,24c-9.32,9.54-19.08,18.68-28.88,27.73-7.94,7.33-16.27,14.25-24.37,21.42-4.43,3.92-8.42,4.11-12.17-.41a26,26,0,0,1-5-9.46c-.46-1.69,1-4.55,2.41-6,9.63-9.7,19.89-18.79,29.2-28.78C952.31,609.8,964,597,974.49,583.35c8.48-11.11,14.93-23.75,22.5-35.57,8-12.48,12.18-26.46,15.55-40.57,3.19-13.37,3.24-26.9-1.28-40.41a99.17,99.17,0,0,0-14.33-28.29c-7.32-9.83-16.45-17.64-26.68-24.21-6.43-4.13-13-8.12-19.66-11.8a100.9,100.9,0,0,0-14.08-6.35c-8.52-3.1-17.07-6.23-25.81-8.56-12.1-3.23-24.38-5.81-36.62-8.53-19.16-4.25-38.36-4-57.59-.37-4.48.84-9.1,1-13.49,2.15-14.39,3.64-28.77,7.35-43,11.45-9,2.59-17.86,5.72-26.65,9-6.44,2.38-12.71,5.22-19,8.06-8.09,3.67-16.17,7.41-24.11,11.39-6.26,3.14-12.3,6.7-18.45,10.06q-6.35,3.47-12.71,6.92c-9.32,5.07-18.71,10-27.92,15.25-5.4,3.08-10.49,6.72-15.75,10.05-3.69,2.33-7.44,4.58-11.17,6.85-8.66,5.26-17.38,10.43-26,15.79S561.52,496.52,553,501.72c-5.32,3.25-10.91,6-16.4,9-6.16,3.33-12.34,6.61-18.51,9.93a22.69,22.69,0,0,1-2.83,1.66c-8.06,2.89-16.48,5-24.13,8.72-11.43,5.56-23.74,5.85-35.79,7.28-9.13,1.09-18.49.61-27.72.22-7-.3-14.06-1.44-21.06-2.43a85.31,85.31,0,0,1-10.09-2.25c-4.83-1.3-9.73-2.47-14.4-4.23-8.3-3.12-16.55-6.41-24.63-10.07a104.62,104.62,0,0,1-15.09-8.41c-8.41-5.65-17-11.19-24.62-17.8a245.18,245.18,0,0,1-23.38-23.71,187.56,187.56,0,0,1-15.88-21.51C272.53,439,267.06,429.5,261.72,420a171.79,171.79,0,0,1-8.53-17.77c-3.07-7.35-5.73-14.88-8.44-22.38-2.23-6.18-4.4-12.38-6.37-18.64-3.29-10.46-7-20.85-9.47-31.5-3.35-14.21-6.09-28.58-8.5-43-7.11-42.47-9.07-85.32-7.67-128.26.76-23.19,2.84-46.42,5.9-69.42,2.83-21.28,7.75-42.28,11.77-63.4.88-4.61,1.82-9.22,2.73-13.82C242.28,11.8,262.51,15.06,263.81,15.36Z" transform="translate(-121.61 -11.8)"/><path d="M224.82,601.05c29.37,16.56,58.05,34.52,88.26,49.38,58.86,29,121.26,47.54,185.92,58.7a734.81,734.81,0,0,0,153,9.94c61.24-2.31,121.36-12.15,180.41-28.55.6-.17,1.21-.29,1.67-.41L872.9,827l-.78.42c-1.06-1.44-2.14-2.86-3.17-4.32q-37.46-53.45-74.84-106.95c-2.12-3.05-4-3.85-7.73-3.06a787.08,787.08,0,0,1-110.8,15.72,744.52,744.52,0,0,1-98,.57c-80.47-5-158.26-22.2-232.92-52.84-7.3-3-13.62-4-20.1.63-7.11,5.08-13.5,3.18-19.83-1.42-4.83-3.5-9.56-7.16-14.61-10.34-6.91-4.35-9-3.87-14.36,1.94Q200.87,749,125.94,830.69a9.72,9.72,0,0,1-4.33,3.09c.86-1.36,1.7-2.74,2.59-4.08L243.72,650.6c3.62-5.43,3.68-7.43-1.27-11.62-3.92-3.31-8.77-5.52-12.75-8.77-5.29-4.32-10.69-8.72-15-13.94s-2.74-10.12,3.53-13.38c2.21-1.15,4.55-2.07,6.83-3.09Z" transform="translate(-121.61 -11.8)"/><path d="M1056.46,476.39" transform="translate(-121.61 -11.8)"/><path d="M1056.46,476.39" transform="translate(-121.61 -11.8)"/><path d="M1057.46,415.52s2.24,52.54-.06,56.72-13.27-32.64-13.27-32.64Z" transform="translate(-121.61 -11.8)"/></svg>